<svg width="615" height="615" viewBox="0 0 615 615" fill="none" xmlns="http://www.w3.org/2000/svg">
<path d="M175.543 403.749L210.652 438.857C210.652 424.315 222.441 412.526 236.983 412.526L201.874 377.417C201.874 391.96 190.085 403.749 175.543 403.749Z" fill="black"/>
<path d="M377.417 201.874L412.526 236.983C412.526 222.44 424.315 210.651 438.857 210.651L403.748 175.543C403.748 190.085 391.959 201.874 377.417 201.874Z" fill="black"/>
<path d="M210.651 175.543L175.543 210.651C190.085 210.651 201.874 222.44 201.874 236.983L236.983 201.874C222.44 201.874 210.651 190.085 210.651 175.543Z" fill="black"/>
<path d="M412.526 377.417L377.417 412.526C391.959 412.526 403.748 424.315 403.748 438.857L438.857 403.749C424.314 403.749 412.526 391.96 412.526 377.417Z" fill="black"/>
<path d="M0 35.1086C0 15.7186 15.7186 0 35.1086 0H175.543C194.933 0 210.651 15.7186 210.651 35.1086V175.543C210.651 194.933 194.933 210.651 175.543 210.651H35.1086C15.7186 210.651 0 194.933 0 175.543V35.1086Z" fill="black"/>
<path d="M403.749 35.1086C403.749 15.7186 419.467 0 438.857 0H579.291C598.681 0 614.4 15.7186 614.4 35.1086V175.543C614.4 194.933 598.681 210.651 579.291 210.651H438.857C419.467 210.651 403.749 194.933 403.749 175.543V35.1086Z" fill="black"/>
<rect x="201.875" y="201.874" width="210.651" height="210.651" fill="black"/>
<path d="M0 438.857C0 419.467 15.7186 403.749 35.1086 403.749H175.543C194.933 403.749 210.651 419.467 210.651 438.857V579.291C210.651 598.681 194.933 614.4 175.543 614.4H35.1086C15.7186 614.4 0 598.681 0 579.291V438.857Z" fill="black"/>
<path d="M403.749 438.857C403.749 419.467 419.467 403.749 438.857 403.749H579.291C598.681 403.749 614.4 419.467 614.4 438.857V579.291C614.4 598.681 598.681 614.4 579.291 614.4H438.857C419.467 614.4 403.749 598.681 403.749 579.291V438.857Z" fill="black"/>
</svg>
